<?xml version="1.0" encoding="utf-8"?>
<!-- Generator: Adobe Illustrator 18.1.1, SVG Export Plug-In . SVG Version: 6.00 Build 0)  -->
<!DOCTYPE svg PUBLIC "-//W3C//DTD SVG 1.1//EN" "http://www.w3.org/Graphics/SVG/1.1/DTD/svg11.dtd">
<svg version="1.1" xmlns="http://www.w3.org/2000/svg" xmlns:xlink="http://www.w3.org/1999/xlink" x="0px" y="0px"
	 viewBox="0 0 100 100" enable-background="new 0 0 100 100" xml:space="preserve">
<g id="green">
	<circle fill="#45BE68" stroke="#55E37E" stroke-width="6" stroke-miterlimit="10" cx="49.9" cy="50.3" r="45"/>
</g>
<g id="blue" display="none">
	<circle display="inline" fill="#0F9CD9" stroke="#27A9E1" stroke-width="6" stroke-miterlimit="10" cx="49.9" cy="50.3" r="45"/>
</g>
<g id="turquoise" display="none">
	<circle display="inline" fill="#4ECDC4" stroke="#67DDD5" stroke-width="6" stroke-miterlimit="10" cx="49.9" cy="50.3" r="45"/>
</g>
<g id="yellow" display="none">
	<circle display="inline" fill="#F9CF27" stroke="#F9DA55" stroke-width="6" stroke-miterlimit="10" cx="49.9" cy="50.3" r="45"/>
</g>
<g id="leandog_color">
	<g>
		<path fill="#17497C" d="M82.4,67.6c-0.4-0.6-0.8-1-1.1-1.4c-0.4-0.4-0.8-1-1.2-1.8c-0.2-0.4-0.4-0.8-0.5-1
			c-0.1-0.2-0.1-0.3-0.1-0.4l0,0v0c0-0.1,0.1-0.5,0.4-1.2c0.3-0.7,0.8-1.8,1.3-3.4c0.7-2,0.9-3.9,0.9-5.5c0-1-0.3-2.4-0.5-2.9
			c0.3-0.8,0.6-1.8,0.6-2.7c0-6.5-2.9-11.8-5.7-15.3c-2.1-2.7-4.2-4.5-5.1-5.2c-2.4-5.1-6.2-7.9-9.5-9.4c-3-1.3-5.6-1.6-6.7-1.6
			c-1.5-0.7-2.9-1-4.2-1v0c0,0,0,0-0.1,0c-1.2,0-2.1,0.3-2.9,0.8c-0.5-0.1-1.4-0.3-2.3-0.3c0,0,0,0,0,0c-1.6,0-3.9,0.4-5.9,2.3
			c-0.8,0.8-1.3,1.8-1.6,2.6c-0.3,0.8-0.3,1.6-0.3,2c0,0.1,0,0.2,0,0.2c-0.4,0.4-0.8,0.9-1.2,1.5c-0.2,0.1-0.3,0.3-0.5,0.5
			c-0.5,0.5-1.1,1.4-1.1,2.7c0,0.3,0,0.6,0.1,1c0.2,0.7,0.3,1.4,0.4,1.9c-0.4,0.4-0.7,0.8-1,1.3c-0.5,0.9-0.8,2.1-0.8,3.5v0
			c0,0.4,0,0.9,0.1,1.3c-0.2,0.3-0.4,0.8-0.6,1.4c-0.4,1.1-0.9,2.6-1,4.2c0,0,0,0.1,0,0.1c0,1.9,0.7,3.7,1.7,5c0.8,1,1.8,1.8,3,2.1
			c-2.6,2.3-4.3,4.4-5.5,6.1c-0.7,1.1-1.2,2-1.6,2.7c-0.3,0.7-0.5,1.2-0.6,1.4c-0.1,0.1-0.4,0.5-0.7,1c-0.6,0.8-1.6,2-2.8,3
			c-1.1,1-2.4,1.8-3.4,2c-2.1,0.5-3.6,1.3-4.6,2.2c-0.5,0.5-0.9,0.9-1.2,1.4c-0.1,0.2-0.3,0.5-0.3,0.7c-0.1,0.2-0.2,0.5-0.2,0.9
			c0,0.2,0,0.7,0.3,1.1c0.4,0.6,0.9,0.8,1.1,0.9c0.5,0.2,0.9,0.3,1.1,0.3c0.1,0,0.1,0,0.1,0c0.7,0.4,1.6,0.9,2.9,0.9h0
			c0.4,0,0.8-0.1,1.2-0.2c0.5,0.2,1.1,0.4,1.9,0.4c0.3,0,0.7,0,1-0.2c0.4-0.1,0.7-0.4,1-0.7c0.2-0.3,0.7-0.6,1.2-0.9
			c0.6-0.3,1.3-0.7,2-1.2c1-0.7,1.9-1.6,2.7-2.3c0.1-0.1,0.1-0.1,0.2-0.2c1.6-1.1,3.4-1.6,5.4-1.2c0.6,0.1,1.2,0.3,1.8,0.5
			c0,0.1,0,0.2,0,0.3c-0.6,0.7-1.2,1.6-1.2,2.5c0,0,0,0,0,0c0,0.8,0.3,1.5,0.6,2c0.2,0.3,0.3,0.5,0.5,0.7c0.1,0.1,0.3,0.2,0.4,0.3
			c0.1,0,0.2,0.1,0.4,0.2c0,0,0,0,0,0.1c0,0,0,0,0,0.1c0,1.1,0.5,2.1,1.2,2.6c0.1,0,0.1,0.1,0.2,0.1c0,0.1,0.1,0.2,0.1,0.3
			c0.1,0.3,0.2,0.5,0.4,0.8c0.1,0.2,0.3,0.5,0.6,0.7c0.5,0.4,1,0.5,1.4,0.5h0c0.6,0,1.1-0.2,1.5-0.4c0.2,0.1,0.3,0.1,0.5,0.2
			c0.4,0.1,0.8,0.1,1.1,0.1h0c0.6,0,1.2-0.1,1.8-0.4c0.4-0.2,0.6-0.4,0.9-0.7c0.5-0.1,1-0.2,1.4-0.5c0.6-0.3,1.2-0.8,1.5-1.4
			c0.3-0.5,0.4-1,0.4-1.5l0,0v-0.1c0,0,0-0.1,0-0.1c0-0.4-0.1-0.7-0.1-1c0.7-0.5,1.3-1.2,1.9-1.7c2.2-2,5.5-3.4,8.7-3.2
			c1.5,0.1,2.4,0.2,3.7,1.1c0.8,0.6,1.7,1.5,2.6,1.8c0,0,0,0,0,0c0,1,0.4,1.9,1,2.6c0.6,0.7,1.4,1.2,2.5,1.3c0,0,0.1,0,0.2,0
			c0.3,0,0.5-0.1,0.8-0.2c0.5,0.3,1.2,0.6,2,0.6c0.2,0,0.5,0,0.7-0.1c0.3-0.1,0.6-0.2,0.9-0.3c0.2,0.1,0.5,0.1,0.7,0.1
			c0.1,0,0.2,0,0.2,0c0.3,0,0.7-0.1,1.1-0.2c0.6-0.2,1-0.7,1.3-1.2c0.2-0.5,0.3-0.9,0.3-1.3c0-0.3,0-0.5-0.1-0.8
			c0.2-0.3,0.3-0.6,0.4-0.9c0.1-0.2,0.1-0.5,0.1-0.8v0C82.9,68.6,82.7,68,82.4,67.6z"/>
		<g>
			<path fill="#FFFFFF" d="M37.9,34.8c0-0.6-0.5-0.8-0.5-0.8s0.3,0.8-0.2,2C37.2,36,38,35.4,37.9,34.8z"/>
			<path fill="#FFFFFF" d="M77.6,65.7c-0.3-0.5-0.5-1-0.6-1.4c-0.1-0.4-0.2-0.9-0.2-1.3c0-0.8,0.2-1.5,0.6-2.3
				c0.3-0.8,0.7-1.8,1.2-3.3c0.5-1.6,0.7-3.2,0.7-4.6c0-2.3-0.5-4.1-0.5-4.2c0,0,0,0,0,0h0l0.6,0.2c0-0.4,0.1-1.3,0.1-1.7
				c0-4.7-1.7-8.8-3.8-11.9c0,3-2.1,4.3-2.1,4.3s0,0,0,0c0,0,0,0,0-0.1c0-0.1,0-0.2,0-0.4c0-0.3,0.1-0.8,0.1-1.3
				c0-1.1-0.1-2.7-0.6-4.2c-0.5-1.5-1.3-3.1-2.8-4.3c0,0-0.1-0.1-0.2-0.1l-0.3,0.5c-0.8-2.1-1.8-3.8-2.9-5.3
				c0.4,1.4,0.5,2.8,0.5,4.1c0,1.8-0.2,3.5-0.4,4.8c-0.1,0.5-0.2,1-0.6,1.4c-0.3,0.4-0.9,0.7-1.4,0.7c0,0,0,0,0,0
				c-0.1,0-0.3,0-0.4,0c0,0,0,0,0,0c-0.1,0.4-0.3,0.8-0.4,1.3c-0.3,1-0.5,2.1-0.7,3c-0.5,2.5-5.3,1.8-5.3,1.8
				c0.9-0.3,1.6-0.7,2.2-1.1c0.6-0.4,0.9-0.8,1-1.3c0.1-0.5,0.3-1.2,0.5-2c0.2-0.8,0.4-1.6,0.7-2.4c0-0.1,0.1-0.2,0.1-0.3
				c-0.2-0.2-0.4-0.4-0.6-0.6c0,0,0,0,0,0c-0.1,0.1-0.3,0.1-0.4,0.3c-1.1,0.8-2.1,5.8-4,6c-1.6,0.2-2.9-0.6-4.1-1.4
				c-0.1,0.4-0.1,0.8-0.2,1.2C53.1,40.2,53,40.6,53,41c0,0.8,0.2,1.6,0.4,1.9c0,0-1.7-1.7-1.6-3.6c0.1-0.4,0.2-0.9,0.2-1.5
				c-0.8-0.4-1.6-0.7-2.4-1.1c0.4,0.7,0.7,1.6,1,2.6c0,0-0.8-1.5-2-2.8c-0.6-0.8-2.6-2.5-2.6-2.5s0,0,0.1,0c-1-1-2.1-2-2.8-3.2
				c-0.1-0.2-0.2-0.3-0.2-0.5c0,0.1,0,0.1,0,0.1s-1.7-2.3-0.6-4.6c0.2-0.3,0.5-0.6,0.8-0.9c0.3-0.2,0.8-0.4,1.3-0.4
				c0.4,0,0.7,0.1,1,0.3c1.4-1.4,3.4-2.4,5.3-3.1c1.8-0.7,3.6-0.8,5.4-1c1-0.1,2.1-0.4,3.1-0.4c0.2-0.2,0.3-0.4,0.5-0.5
				c-2.7-1-4.9-1-5.1-1l-0.3,0l-0.3-0.1c-1.3-0.7-2.4-0.9-3.3-0.9c-1.9,0-3.6,1-5,1.8c0,0,0.2-0.5,0.6-1.2c-0.2,0-0.5,0-0.8,0
				c-1.2,0-2.7,0.3-4,1.5c-0.4,0.4-0.7,0.9-0.8,1.4c0,0.1-0.1,0.3-0.1,0.4c1.4-0.5,2.6-0.2,2.6-0.2s0,0,0,0c0,0-0.1,0-0.1,0.1
				c-0.1,0.1-0.2,0.1-0.4,0.2c-0.4,0.2-0.8,0.5-1.3,0.9c-1,0.8-2.1,1.9-2.3,2.9L39,25.7l-0.4,0.2c0,0,0,0,0,0c0,0-0.1,0-0.1,0.1
				c-0.1,0.1-0.2,0.2-0.3,0.3c-0.2,0.3-0.4,0.5-0.4,0.8c0,0.1,0,0.1,0,0.2c0.2,0.8,0.4,1.6,0.5,2.2c1.7,0.1,2.4,1.3,2.4,1.3s0,0,0,0
				c0,0,0,0,0,0c0,0-0.1,0-0.1,0c-0.3,0-1.4,0.3-2,0.5c-0.6,0.2-1.2,0.6-1.6,1.3c-0.3,0.5-0.5,1.2-0.5,2.1c0,0.1,0,0.2,0,0.4
				c0.2-0.9,0.7-3.3,2.2-2.8c1.6,0.5,1.6,2.7,3,4c1.5,1.3,7,5.3,7.1,10.7c0,0-0.7-5-9.1-9.6c-0.4-0.2-0.8-0.1-1.1,0.1
				c-0.2,0.3-0.3,0.7-0.5,1.1c-0.2,0.6-0.3,1.3,0,2c0.3,0.6,0.9,1.1,1.4,1.5c1.4,1.1,2.3,2.1,3,3.1c0.7,1,1.2,1.9,2,3
				c0.8,1.3,2.4,2.2,3.8,2.2c0.6,0,1.2-0.2,1.7-0.6c0.8-0.7,1.6-2.1,2.5-3.7c1.8-3.1,4.8-2.5,4.8-2.5c-1.1,0.6-2,2-2.8,3.5
				c-0.9,1.5-1.6,3.2-3,4.3c-0.9,0.7-2,1.1-3.1,1.1c0,0,0,0,0,0c-2.3,0-4.4-1.3-5.6-3.2c-0.3-0.6-0.6-1-0.9-1.5c0,0-0.1,0-0.3,0
				c0.1,1.5,0.7,2.5,1.4,3.2c0.7,0.7,1.4,1,1.5,1.1l0,0c0,0,0,0,0,0s-1,0.2-2.1-0.1c0,0.1-0.1,0.2-0.1,0.4c-0.1,0.5-0.2,1.3-0.2,2.1
				c0,1,0.2,2.2,0.7,3.4c0.7,1.7,1.6,3.1,2.3,4.5c0.7,1.3,1.4,2.5,1.4,3.9c0,0.1,0,0.2,0,0.2c0,1.3-0.5,2.2-1,3
				c-0.5,0.8-1,1.6-1.4,2.8c-0.1,0.4-0.2,0.7-0.2,0.9c0.9-0.5,1.7-0.2,1.7-0.2c-0.6,0.5-0.7,0.9-0.7,1.5c0,0.3,0.1,0.6,0.1,0.8
				c0,0.1,0,0.1,0.1,0.2c0,0,0.1,0,0.1-0.1c0.1-0.1,0.2-0.1,0.3-0.2c0.1-2.3,2.3-2.6,2.3-2.6s-0.1,0.5-0.3,0.9c-0.5,0.8,0,1.9,0.2,2
				c0.2,0,0.3,0,0.4,0c0.4,0,0.4-0.1,0.5-0.1c-0.2-0.5-0.3-1-0.3-1.5c0.3-1.6,2.1-1.4,2.1-1.4c-0.4,1.1,0.2,1.9,0.2,1.9
				c0.1,0,0.1-0.1,0.3-0.1c0.2-0.1,0.3-0.2,0.4-0.3c0.1-0.1,0.1-0.2,0.1-0.4c0-0.4-0.2-1-0.4-1.5c-0.1-0.2-0.1-0.3-0.2-0.6
				c0-0.2-0.1-0.5-0.2-0.9c-0.1-0.4-0.2-0.7-0.2-1.2c0,0,0.7,0.2,1.5,0.7c-0.2-0.6-0.6-1.2-1.2-1.9c-0.5-0.6-0.5-1.1-0.6-1.6v0v0
				c0,0,0.2,0,0.4,0.1c0-0.1,0.1-0.3,0.1-0.5c0-0.2,0-0.3-0.1-0.5c-0.1-0.6-0.7-1.4-0.8-1.5l-0.4-0.4l0.1-0.5c0,0,0-0.1,0-0.1
				c0-0.2,0-0.7-0.2-1.6c-0.2-0.8-0.2-1.5-0.2-2c0-0.1,0-0.1,0-0.2c-0.7-1.8,1.1-2.4,1.1-2.4l0,0l0,0l0,0l0,0c0,0,0,0,0,0
				c0,0,0,0.1,0,0.2c0,0.2,0.1,0.3,0.2,0.5c0,0,0,0,0,0c0.2,0,0.3,0.1,0.6,0.1c0.2,0.1,0.8,0.4,0.8,0.4c0.1,0.1,0.2,0.1,0.3,0.2
				c0.2,0.2,0.4,0.4,0.6,0.6c0.4,0.4,0.9,1,1.5,1.5c0.7,0.5,1.4,0.9,2.4,0.9c0.6,0,1.2-0.1,2-0.5l0.3-0.2l0.4,0.1
				c1.3,0.3,2.4,0.6,3.3,0.6c0.7,0,1.4-0.2,2.2-0.6c0.7-0.4,1.4-1.1,2.3-2.2c-0.6-0.5-0.8-0.9-0.8-0.9s0,0,0.1,0c0.1,0,0.1,0,0.3,0
				c0.2,0,0.5,0,0.9,0c0.8,0,1.7-0.1,2.6-0.3c0.7-0.2,2.3-0.5,2.9-0.8c0.2-0.6,0.4-1,0.4-1c0,0,0.9,1.4,0.9,3.8
				c0.8-0.4,1.5-0.8,1.5-0.8c0,0.1-0.1,1.8-1.4,3.3c-0.4,0.4-0.6,0.7-0.7,0.8c-0.1,0.1,0,0.1-0.1,0.2c0,0.1,0,0.2,0,0.4
				c0.1,0.5,0.1,1,0.1,1.3c0,0.3,0,0.6,0,0.6l0,0.2l-0.1,0.2c0,0,0,0,0,0c0,0,0,0.1-0.1,0.1c-0.1,0.1-0.1,0.2-0.2,0.4
				c0,0-0.7,0.5-0.5,1c0.2,0.5,1.6,0.5,1.6,0.5c0,0-0.1,0.2-0.2,0.4c-0.1,0.1-0.2,0.3-0.4,0.5c-0.1,0.6-0.2,1.7,0.3,2.4
				c0.1,0.2,0.3,0.3,0.4,0.4c0,0,0.1,0,0.1,0c1.8,0.4,2.2-1.2,2.2-1.2c0,0.2,0.1,0.4,0.1,0.8c0,0.2,0,0.4,0,0.5c0,0,0,0,0,0
				c0.2,0.2,0.5,0.3,0.8,0.3c0,0,0,0,0,0c1.2-0.5,1.5-2.4,1.5-2.4c0,0,0.2,0.3,0.3,0.8c0.1,0.3,0.3,0.8,0.3,1.3
				c1.5-0.2,1-2.6,0.8-3.4C79.6,67.6,78.3,66.9,77.6,65.7z M53.4,42.9L53.4,42.9L53.4,42.9L53.4,42.9z M69.8,55.6
				c-1.7,0.6-3.5-1.2-3.5-1.2s0,0,0,0c0,0,0,0,0,0c0,0,0.1,0,0.2,0c0.2,0,0.4,0,0.7,0c0.6,0,1.5-0.1,2.3-0.3
				c0.8-0.3,1.5-0.7,2.1-1.3C71.7,52.8,71.5,55.1,69.8,55.6z M70.9,51.5c-0.1,0-0.2,0-0.2,0c-0.9,0-1.7-0.4-2.4-0.9
				c-0.7-0.5-1.3-1.2-1.8-1.9c-1.1-1.5-0.7-5.7-0.7-5.7c0.5,1.1,1.1,2.4,1.7,3.4c0.7,1.1,1.4,2,2,2.5c0.4,0.3,0.8,0.4,1.1,0.4
				c0,0,0.1,0,0.1,0c2-0.1,3.9-1.4,4.1-1.5c0,0,0,0,0,0S73.8,51.2,70.9,51.5z"/>
			<path fill="#FFFFFF" d="M38.2,43.5c-0.8-0.6-1.4-1.2-1.8-1.8c-0.1,0.3,0,0.6,0,0.8c0.1,0.2,0.1,0.5,0.2,0.7
				c0,0.1,0.1,0.1,0.1,0.2c0.4,0.6,0.9,1.1,1.4,1.6c0.4,0.3,0.7,0.5,1.2,0.7c0.3,0.1,0.6,0.2,0.9,0.2c0.1,0,0.6,0.1,0.7,0.1
				C40.3,45.4,39.5,44.5,38.2,43.5z"/>
			<path fill="#FFFFFF" d="M39.9,54.4c0-1.9,0.5-3.3,0.5-3.6c-0.2-0.2-0.4-0.5-0.6-0.8c-4.6,3.9-6.5,7-7.3,8.7
				c-0.3,0.6-0.5,1.1-0.6,1.5c-0.1,0.1-0.1,0.2-0.1,0.2c0,0.1-0.1,0.2-0.2,0.3c-0.1,0.2-0.3,0.5-0.6,0.8c-0.5,0.6-1.1,1.4-1.9,2.2
				c-1.6,1.6-3.6,3.4-6,3.9c-1,0.2-1.7,0.5-2.3,0.9c0.7,0.1,1.2,0.3,1.2,0.3c-0.3,0.2-1.2,0.8-1.6,1.1c0,0-0.1,0-0.1,0.1
				c0.4,0.3,0.9,0.5,1.3,0.5c1-3,3.6-1.3,3.6-1.3c-0.3,0.1-0.8,0.4-1,0.7c-0.2,0.2-0.3,0.4-0.4,0.6c0,0,0,0,0.1,0
				c0.3,0.2,0.8,0.3,1,0.3h0c0.6-0.6,1.3-1.1,1.9-1.4c0.7-0.4,1.3-0.7,1.8-1c0.8-0.6,1.6-1.3,2.4-2.1c0.9-0.8,1.5-2.1,2.7-2.7
				c0.4-0.2,0.7-0.2,1-0.3c0.2-0.1,0.3-0.1,0.4-0.1c0.1-0.4,0.3-0.9,0.5-1.5c0.3-0.6,0.6-1.2,1.2-1.8c0.3-0.3,0.7-0.4,1-0.5
				c0.3-0.1,0.7-0.1,1-0.2c0.7-0.1,1.3-0.2,1.8-0.3c0.1,0,0.1,0,0.2,0c-0.1-0.2-0.2-0.4-0.2-0.5C39.9,56.6,39.9,55.7,39.9,54.4z"/>
			<path fill="#FFFFFF" d="M39.3,34.3c-0.6,0.9-0.4,1.3,0.5,2C39.8,36.2,39.3,35.3,39.3,34.3z"/>
			<path fill="#FFFFFF" d="M37.3,37.6c0-0.1,0-0.2,0-0.3c0-0.2-0.1-0.3-0.2-0.4c-0.1-0.1-0.2-0.2-0.3-0.3l-0.1,0.2c0,0,0,0,0,0
				c0,0,0,0,0,0.1c0,0.1-0.1,0.2-0.2,0.3c-0.1,0.3-0.3,0.7-0.5,1.2c-0.2,0.4-0.4,1-0.5,1.5c0.4-0.4,0.9-0.8,0.9-0.8
				C36.8,38.7,37.3,38.2,37.3,37.6z"/>
		</g>
		<path fill="#66B245" d="M63.7,23.3c-0.6-0.8-1.1-1.3-1.5-1.6c-0.4-0.3-0.8-0.4-1.3-0.4c-0.7,0-1.8,0.4-3.2,1.2
			c0,0,0.8-1.4,1.7-2.4c-1,0-2,0.3-3.1,0.4c-1.8,0.3-3.7,0.4-5.4,1c-1.9,0.7-3.8,1.7-5.3,3.1c0.1,0,0.1,0.1,0.2,0.1
			c0.2,0.1,0.3,0.2,0.5,0.4c0.2,0.2,0.4,0.4,0.5,0.6c0.1,0.2,0.3,0.3,0.5,0.5c0.2,0.2,0.3,0.4,0.4,0.5c0.5,0.7,0.9,1.5,1.1,2.3
			c0.1,0.2,0.2,0.5,0.2,0.7c0,0,0,0.3,0.1,0.3c0,0-2-0.9-4.6-3.4c-0.1,0-0.2,0.2-0.3,0.4c-0.1,0.2-0.4,0.8-0.6,1.3
			c-0.2,0.6-0.4,1.2-0.5,1.6c0,0.1-0.1,0.2-0.1,0.3c0.1,0.2,0.1,0.4,0.2,0.5c0.7,1.2,1.8,2.2,2.8,3.2c0.1-0.1,0.3-0.3,0.6-0.7
			c0,0-1.7-0.7-1.7-2.9c0,0,4.4,2.8,7.3,2.5c0,0-1.5,1.5-4.3,1L47.6,34c0.1,0.1,0.1,0.2,0.2,0.3c0.4,0.3,1.1,1,1.8,2.4
			c0.8,0.4,1.6,0.7,2.4,1.1c0.1-1,0.2-2,0.3-2.6c0.2-1,1.4-1.2,1.4-1.2c0,0.2,0,0.2,0,0.3c0,0.1,0,0.1,0,0.1c0,0.2,0,0.5-0.1,0.9
			c0,0.4-0.1,0.9-0.1,1.4c-0.1,0.6-0.2,1.3-0.2,1.9c1.2,0.8,2.5,1.6,4.1,1.4c1.9-0.2,2.9-5.2,4-6c0.2-0.1,0.3-0.2,0.4-0.3
			c-0.8-0.9-1.6-2.1-2.1-3.3c-0.5-1.1-0.9-2-1.4-2.6c-0.4-0.7-0.9-1.1-1.1-1.2c0,0,0,0,0,0c-0.1,0-0.3,0.1-0.4,0.1c0,0,0,0,0,0
			c-0.3,0-0.6-0.1-0.8-0.2c-0.2-0.1-0.4-0.3-0.5-0.4c-1-1.4,0.9-2.6,0.9-2.6s0,0,0,0c0,0,0.2,1.5,0.2,1.5c0.1-0.1,1.4-2,1.5-2.1
			c0,0,0.1-0.1,0.1-0.1s0.5,1.2,0.5,2.2c0,0,0,0,0,0c0.4,0.3,0.8,0.7,1.1,1.1c0.7,0.9,1.4,2.1,2,3.5c0.6,1.4,1.8,2.9,2.6,3.5
			c0.1,0.1,0.2,0.1,0.3,0.2c0,0,0-0.1,0-0.1c0.2-1.3,0.4-2.9,0.4-4.5C65.1,26.6,64.7,24.6,63.7,23.3z"/>
	</g>
</g>
<g id="leandog_white" display="none">
	<g display="inline">
		<g>
			<path fill="#FFFFFF" d="M69.6,54.1c-0.8,0.2-1.7,0.3-2.3,0.3c-0.3,0-0.6,0-0.7,0c-0.1,0-0.2-0.2-0.2-0.2c0,0,0-0.2,0-0.2
				c0,0,0,0,0,0s1.8,2,3.5,1.4c1.6-0.5,1.8-2.7,1.8-2.7C71.1,53.4,70.4,53.9,69.6,54.1z"/>
			<path fill="#FFFFFF" d="M70.7,49.3C70.7,49.3,70.7,49.3,70.7,49.3c-0.4,0-0.8-0.1-1.2-0.4c-0.7-0.5-1.4-1.4-2-2.5
				c-0.7-1.1-1.3-2.3-1.7-3.4c0,0-0.4,4.3,0.7,5.7c0.5,0.7,1.1,1.4,1.8,1.9c0.7,0.5,1.5,0.9,2.4,0.9c0.1,0,0.2,0,0.2,0
				c2.9-0.2,3.9-3.7,3.9-3.7s0,0,0,0C74.6,47.9,72.7,49.2,70.7,49.3z"/>
			<path fill="#FFFFFF" d="M82.5,67.6c-0.4-0.6-0.8-1-1.2-1.4c-0.4-0.4-0.8-1-1.2-1.8c-0.2-0.4-0.4-0.8-0.5-1
				c-0.1-0.2,0.1-0.3,0.1-0.4l0.2,0v0c0-0.1-0.1-0.5,0.1-1.2c0.3-0.7,0.6-1.8,1.2-3.4c0.7-2,0.8-3.9,0.8-5.5c0-1-0.4-2.4-0.5-2.9
				c0.3-0.8,0.6-1.8,0.6-2.7c0-6.5-2.9-11.8-5.7-15.3c-2.1-2.7-4.2-4.5-5.1-5.2c-2.4-5.1-6.2-7.9-9.5-9.4c-3-1.3-5.7-1.6-6.7-1.6
				C53.8,15,52,14.8,51,14.8V15c0,0,0,0,0,0c-1.2,0-2.1,0.1-2.9,0.6c-0.5-0.1-1.4-0.6-2.3-0.6c0,0,0,0,0,0c-1.6,0-3.9,0.5-5.9,2.4
				c-0.8,0.8-1.3,1.8-1.6,2.6C38,20.8,38,21.6,38,22.1c0,0.1,0,0.2,0,0.2c-0.4,0.4-0.8,0.9-1.2,1.5c-0.2,0.1-0.3,0.3-0.5,0.5
				c-0.5,0.5-1.1,1.4-1.1,2.7c0,0.3,0,0.6,0.1,1c0.2,0.7,0.3,1.4,0.4,1.9c-0.4,0.4-0.6,0.8-0.9,1.3c-0.5,0.9-0.7,2.1-0.7,3.5v0
				c0,0.4-0.1,0.9,0,1.3c-0.2,0.3-0.6,0.8-0.8,1.4c-0.4,1.1-1.2,2.6-1.2,4.2c0,0,0,0.1,0,0.1c0,1.9,0.9,3.7,1.9,5
				c0.8,1,1.9,1.8,3.1,2.1c-2.6,2.3-4.3,4.4-5.4,6.1c-0.7,1.1-1.2,2-1.6,2.7c-0.3,0.7-0.5,1.2-0.6,1.4c-0.1,0.1-0.3,0.5-0.7,1
				c-0.6,0.8-1.6,2-2.8,3c-1.1,1-2.4,1.8-3.4,2c-2.1,0.5-3.6,1.3-4.6,2.2c-0.5,0.5-0.9,0.9-1.2,1.4c-0.1,0.2-0.3,0.5-0.3,0.7
				c-0.1,0.2-0.2,0.5-0.2,0.9c0,0.2,0,0.7,0.3,1.1c0.4,0.6,0.9,0.8,1.1,0.9c0.5,0.2,0.9,0.3,1.1,0.3c0.1,0,0.1-0.1,0.1-0.1
				c0.7,0.4,1.6,0.8,2.9,0.8h0c0.4,0,0.8,0.1,1.2-0.1c0.5,0.2,1.1,0.5,1.9,0.5c0.3,0,0.7,0,1-0.1c0.4-0.1,0.7-0.4,1-0.7
				c0.2-0.3,0.7-0.6,1.2-0.9c0.6-0.3,1.3-0.7,2-1.2c1-0.7,1.9-1.6,2.7-2.3c0.1-0.1,0.1-0.1,0.2-0.2c1.6-1.1,3.4-1.6,5.4-1.2
				c0.6,0.1,1.2,0.3,1.8,0.5c0,0.1,0,0.2,0,0.3c-0.6,0.7-1.2,1.6-1.2,2.5c0,0,0,0,0,0c0,0.8,0.3,1.5,0.6,2c0.2,0.3,0.3,0.5,0.5,0.7
				c0.1,0.1,0.2,0.2,0.4,0.3c0.1,0,0.3,0.1,0.3,0.2c0,0,0,0,0,0.1c0,0,0,0,0,0.1c0,1.1,0.5,2.1,1.2,2.6c0.1,0,0.1,0.1,0.2,0.1
				c0,0.1,0.1,0.2,0.1,0.3c0.1,0.3,0.2,0.5,0.4,0.8c0.1,0.2,0.3,0.3,0.6,0.5c0.5,0.4,1,0.4,1.4,0.4h0c0.6,0,1.1-0.1,1.5-0.3
				c0.2,0.1,0.3,0.1,0.5,0.2c0.4,0.1,0.8,0.1,1.1,0.1h0c0.6,0,1.2-0.1,1.8-0.3c0.4-0.2,0.6-0.4,0.9-0.6c0.5-0.1,1-0.2,1.4-0.4
				c0.6-0.3,1.2-0.8,1.5-1.4c0.3-0.5,0.4-1,0.4-1.5l0,0v-0.1c0,0,0-0.1,0-0.1c0-0.4,0-0.7-0.1-1c0.7-0.5,1.3-1.2,1.9-1.7
				c2.2-2,5.5-3.4,8.7-3.2c1.5,0.1,2.5,0.2,3.8,1.1c0.8,0.6,1.7,1.5,2.7,1.8c0,0,0,0,0,0c0,1,0.3,1.9,0.9,2.6
				c0.6,0.7,1.4,1.2,2.5,1.3c0,0,0.1,0,0.1,0c0.3,0,0.5-0.1,0.8-0.2c0.5,0.3,1.2,0.6,2,0.6c0.2,0,0.5,0,0.7-0.1
				c0.3-0.1,0.6-0.2,0.9-0.3c0.2,0.1,0.5,0.1,0.7,0.1c0.1,0,0.2,0,0.2,0c0.3,0,0.7-0.1,1.1-0.2c0.6-0.2,1-0.7,1.3-1.2
				c0.2-0.5,0.3-0.9,0.3-1.3c0-0.3,0-0.5-0.1-0.8c0.2-0.3,0.4-0.6,0.5-0.9c0.1-0.2,0.2-0.5,0.2-0.8v0C83,68.6,82.7,68,82.5,67.6z
				 M35.4,39.9c0.1-0.5,0.3-1,0.5-1.5c0.2-0.5,0.4-0.9,0.5-1.2c0.1-0.1,0.1-0.3,0.2-0.3c0,0,0-0.1,0-0.1c0,0,0,0,0,0l0.1-0.2
				c0.1,0.1,0.2,0.1,0.3,0.2c0.1,0.1,0.1,0.2,0.2,0.4c0,0.1,0,0.2,0,0.3c0,0.6-0.5,1.1-1,1.5C36.3,39,35.8,39.4,35.4,39.9z M37.5,34
				c0,0,0.4,0.2,0.5,0.8c0,0.6-0.7,1.2-0.7,1.2C37.8,34.7,37.5,34,37.5,34z M40.6,58.7c-0.5,0.1-1.1,0.2-1.8,0.3
				c-0.3,0.1-0.7,0.1-1,0.2c-0.3,0.1-0.7,0.2-1,0.5c-0.6,0.5-0.9,1.2-1.2,1.8c-0.2,0.6-0.4,1.1-0.5,1.5c-0.1,0-0.2,0.1-0.4,0.1
				c-0.3,0.1-0.6,0.1-1,0.3c-1.2,0.5-1.9,1.9-2.7,2.7c-0.9,0.8-1.6,1.5-2.4,2.1c-0.5,0.3-1.1,0.8-1.8,1.2c-0.6,0.4-1.3,0.6-1.9,1.6
				h0c-0.2,0-0.6-0.3-1-0.4c0,0,0-0.1-0.1-0.1c0.1-0.2,0.2-0.4,0.4-0.6c0.3-0.3,0.7-0.6,1-0.7c0,0-2.6-1.7-3.6,1.3
				c-0.4,0-0.9-0.3-1.3-0.5c0,0,0.1-0.1,0.1-0.1c0.3-0.3,1.3-0.9,1.6-1.1c0,0-0.5-0.2-1.2-0.3c0.6-0.3,1.4-0.6,2.3-0.9
				c2.4-0.6,4.4-2.3,6-3.9c0.8-0.8,1.4-1.6,1.9-2.2c0.2-0.3,0.4-0.6,0.6-0.8c0.1-0.1,0.1-0.2,0.2-0.3c0-0.1,0.1-0.1,0.1-0.2
				c0.2-0.4,0.3-0.8,0.6-1.5c0.9-1.8,2.7-4.9,7.3-8.7c0.2,0.3,0.3,0.6,0.6,0.8c-0.1,0.3-0.5,1.7-0.5,3.6c0,1.3-0.1,2.2,0.6,3.7
				c0.1,0.2,0.2,0.4,0.2,0.5C40.7,58.7,40.7,58.7,40.6,58.7z M40.3,46c-0.3-0.1-0.6-0.1-0.9-0.2c-0.4-0.1-0.8-0.4-1.2-0.7
				c-0.6-0.4-1.1-1-1.4-1.6c0-0.1-0.1-0.1-0.1-0.2c-0.1-0.2-0.2-0.4-0.2-0.7c-0.1-0.3-0.1-0.6,0-0.8c0.4,0.6,1,1.2,1.8,1.8
				c1.3,1,2.1,1.8,2.8,2.6C40.9,46,40.4,46,40.3,46z M79.4,71.5c-0.1-0.5-0.2-0.9-0.3-1.3c-0.2-0.4-0.3-0.8-0.3-0.8
				c0,0-0.3,1.9-1.5,2.4c0,0,0,0,0,0c-0.3,0-0.6-0.1-0.8-0.3c0,0,0,0,0,0c0-0.2,0-0.4,0-0.5c0-0.3,0-0.6-0.1-0.8
				c0,0-0.4,1.7-2.2,1.2c0,0-0.1,0-0.1,0c-0.1-0.1-0.3-0.2-0.4-0.4c-0.5-0.7-0.4-1.9-0.3-2.4c0.2-0.2,0.3-0.4,0.4-0.5
				c0.1-0.2,0.1-0.3,0.2-0.4c0,0-1.4,0-1.6-0.5c-0.2-0.5,0.5-1,0.5-1c0.1-0.2,0.1-0.3,0.2-0.4c0,0,0-0.1,0.1-0.1c0,0,0,0,0,0
				l0.1-0.2l0-0.2c0,0,0-0.2,0-0.6c0-0.3,0-0.8-0.1-1.3c0-0.2,0-0.3,0-0.4c0-0.1,0,0,0.1-0.2c0.1-0.1,0.3-0.4,0.7-0.8
				c1.4-1.5,1.4-3.2,1.4-3.3c0,0-0.8,0.4-1.5,0.8c0.1-2.4-0.9-3.8-0.9-3.8c0,0-0.2,0.4-0.4,1c-0.6,0.3-2.2,0.7-2.9,0.8
				c-0.8,0.2-1.8,0.3-2.6,0.3c-0.4,0-0.7,0-0.9,0c-0.1,0-0.2,0-0.3,0c-0.1,0-0.1,0-0.1,0s0.3,0.4,0.8,0.9c-0.8,1.1-1.6,1.7-2.3,2.2
				c-0.8,0.5-1.4,0.6-2.2,0.6c-0.9,0-2-0.3-3.3-0.6l-0.4-0.1l-0.3,0.2c-0.8,0.4-1.4,0.5-2,0.5c-1,0-1.7-0.4-2.4-0.9
				c-0.7-0.5-1.1-1.1-1.5-1.5c-0.2-0.2-0.4-0.4-0.6-0.6c-0.1-0.1-0.2-0.2-0.3-0.2c0,0-0.6-0.4-0.8-0.4c-0.2-0.1-0.4-0.1-0.6-0.1
				c0,0,0,0,0,0C50.1,57.2,50,57,50,56.9c0-0.1,0-0.1,0-0.2c0,0,0,0,0,0c0,0-1.8,0.6-1.1,2.4c0,0.1,0,0.1,0,0.2c0,0.5,0.1,1.2,0.2,2
				c0.2,0.9,0.2,1.4,0.2,1.6c0,0.1,0,0.1,0,0.1l-0.1,0.5l0.4,0.4c0,0,0.7,0.8,0.8,1.5c0,0.2,0.1,0.4,0.1,0.5c0,0.2,0,0.4-0.1,0.5
				c-0.3-0.1-0.4-0.1-0.4-0.1c0.1,0.5,0.1,1,0.6,1.6c0.7,0.7,1,1.4,1.2,1.9c-0.7-0.4-1.5-0.7-1.5-0.7c0,0.5,0.1,0.8,0.2,1.2
				c0.1,0.4,0.2,0.7,0.2,0.9c0,0.3,0.1,0.4,0.2,0.6c0.2,0.5,0.4,1.1,0.4,1.5c0,0.2,0,0.3-0.1,0.4c-0.1,0.1-0.1,0.2-0.4,0.3
				c-0.1,0.1-0.2,0.1-0.3,0.1c0,0-0.5-0.8-0.2-1.9c0,0-1.8-0.2-2.1,1.4c0,0.5,0.1,1,0.3,1.5c-0.1,0.1-0.1,0.1-0.5,0.1
				c-0.1,0-0.2,0-0.4,0c-0.2-0.1-0.7-1.1-0.2-2c0.2-0.4,0.3-0.9,0.3-0.9s-2.2,0.3-2.3,2.6c-0.1,0.1-0.2,0.1-0.3,0.2
				c0,0-0.1,0-0.1,0.1c0-0.1-0.1-0.1-0.1-0.2C45,75,45,74.7,45,74.4c0-0.5,0.1-1,0.7-1.5c0,0-0.8-0.3-1.7,0.2c0-0.2,0.1-0.5,0.2-0.9
				c0.4-1.2,1-2,1.4-2.8c0.5-0.8,1-1.7,1-3c0-0.1,0-0.2,0-0.2c-0.1-1.4-0.7-2.6-1.4-3.9c-0.7-1.3-1.6-2.8-2.3-4.5
				c-0.5-1.2-0.7-2.4-0.7-3.4c0-0.9,0.1-1.6,0.2-2.1c0-0.1,0.1-0.3,0.1-0.4c1.1,0.3,2.1,0.1,2.1,0.1s0,0,0,0c-0.1,0-0.8-0.4-1.5-1.1
				c-0.7-0.7-1.3-1.7-1.4-3.2c0.2,0,0.3,0,0.3,0c0.3,0.4,0.6,0.7,0.9,1.3c1.2,1.9,3.3,3,5.6,3c0,0,0,0,0,0c1.1,0,2.2-0.1,3.1-0.9
				c1.4-1.2,2.2-2.7,3-4.2c0.8-1.5,1.7-2.8,2.8-3.5c0,0-2.9-0.6-4.8,2.5c-0.9,1.6-1.6,3-2.5,3.7c-0.5,0.4-1.1,0.6-1.7,0.6
				c-1.4,0-3-0.9-3.8-2.2c-0.7-1.1-1.2-2.1-2-3c-0.7-1-1.6-1.9-3-3.1c-0.5-0.4-1.1-0.9-1.4-1.5c-0.3-0.6-0.2-1.3,0-2
				c0.1-0.3,0.2-0.7,0.5-1.1c0.3-0.3,0.7-0.3,1.1-0.1c8.4,4.6,9.1,9.6,9.1,9.6c-0.1-5.4-5.6-9.4-7.1-10.7c-1.5-1.3-1.4-3.5-3-4
				c-1.5-0.4-2,1.9-2.2,2.8c0-0.1,0-0.2,0-0.4c0-1,0.2-1.7,0.5-2.1c0.4-0.7,1-1.1,1.6-1.3c0.6-0.2,1.7-0.3,2-0.3
				c0.1,0,0.1,0.2,0.1,0.2c0,0,0,0,0,0c0,0,0,0,0,0s-0.8-1.3-2.4-1.4c-0.1-0.6-0.3-1.5-0.5-2.3c0-0.1,0-0.2,0-0.2
				c0-0.2,0.1-0.5,0.4-0.8c0.1-0.1,0.2-0.2,0.3-0.3c0,0,0.1-0.1,0.1-0.1c0,0,0,0,0,0l0.4-0.2l0.1-0.4c0.3-1,1.3-2.1,2.3-2.9
				c0.5-0.4,1-0.7,1.3-0.9c0.2-0.1,0.3-0.2,0.4-0.2c0,0,0.1,0,0.1-0.1c0,0,0,0,0,0s-1.1-0.2-2.6,0.2c0-0.1,0.1-0.3,0.1-0.4
				c0.1-0.5,0.4-1,0.8-1.4c1.3-1.2,2.8-1.5,4-1.5c0.3,0,0.6,0,0.8,0c-0.4,0.7-0.6,1.2-0.6,1.2c1.4-0.8,3.1-1.8,5-1.8
				c1,0,2.1,0.2,3.3,0.9l0.3,0.1l0.3,0c0.2,0,2.4,0,5.1,1c-0.2,0.1-0.3,0.3-0.5,0.5c-1,0-2,0.3-3.1,0.4c-1.8,0.3-3.7,0.4-5.4,1
				c-1.9,0.7-3.8,1.7-5.3,3.1c-0.3-0.2-0.7-0.3-1-0.3c-0.5,0-0.9,0.2-1.3,0.4c-0.3,0.2-0.6,0.5-0.8,0.9c-1.1,2.3,0.6,4.6,0.6,4.6
				s0,0,0-0.1c0.1,0.2,0.1,0.4,0.2,0.5c0.7,1.2,1.8,2.2,2.8,3.2c-0.1,0-0.1,0-0.1,0s2,1.8,2.6,2.5c1.1,1.4,2,2.8,2,2.8
				c-0.3-1.1-0.6-1.9-1-2.6c0.8,0.4,1.6,0.7,2.4,1.1c-0.1,0.6-0.1,1.1-0.2,1.5c-0.1,1.9,1.6,3.6,1.6,3.6C53.3,42.6,53,41.8,53,41
				c0-0.4,0-0.8,0.1-1.2c0.1-0.3,0.1-0.8,0.2-1.2c1.2,0.8,2.5,1.6,4.1,1.4c1.9-0.2,2.9-5.2,4-6c0.2-0.1,0.3-0.2,0.4-0.3c0,0,0,0,0,0
				c0.2,0.2,0.4,0.4,0.6,0.6c0,0.1-0.1,0.2-0.1,0.3c-0.3,0.7-0.5,1.6-0.7,2.4c-0.2,0.8-0.4,1.6-0.5,2c-0.1,0.4-0.5,0.9-1,1.3
				c-0.5,0.4-1.3,0.8-2.2,1.1c0,0,4.8,0.8,5.3-1.8c0.3-0.8,0.5-2,0.7-3c0.1-0.5,0.3-1,0.4-1.3c0,0,0,0.2,0,0.2
				c0.1,0,0.3,0.3,0.4,0.3c0,0,0,0,0,0c0.5,0,1.1-0.5,1.4-0.9c0.3-0.4,0.5-1,0.6-1.6c0.2-1.3,0.4-3,0.4-4.8c0-1.4-0.1-2.8-0.5-4.2
				c1.1,1.4,2.2,3.2,2.9,5.2l0.3-0.5c0.1,0,0.2,0.1,0.2,0.1c1.4,1.2,2.3,2.7,2.8,4.3c0.5,1.5,0.6,3.1,0.6,4.2c0,0.6,0,1-0.1,1.3
				c0,0.2,0,0.3,0,0.4c0,0,0,0.1,0,0.1c0,0,0,0,0,0s2.1-1.3,2.1-4.3c2.1,3.1,3.8,7.1,3.8,11.9c0,0.4,0,1.2-0.1,1.7l-0.6-0.2l0,0
				c0,0,0,0,0,0c0,0.2,0.5,1.9,0.5,4.2c0,1.4-0.2,3-0.7,4.6c-0.5,1.5-0.9,2.5-1.2,3.3c-0.3,0.8-0.6,1.5-0.6,2.3
				c0,0.4,0.1,0.9,0.2,1.3c0.1,0.4,0.4,0.9,0.6,1.4c0.6,1.2,2,1.9,2.6,2.4C80.4,68.9,81,71.3,79.4,71.5z M39.3,34.3
				c0,1.1,0.5,2,0.5,2C38.8,35.6,38.7,35.2,39.3,34.3z"/>
		</g>
		<path fill="#66B245" d="M63.7,23.3c-0.6-0.8-1.1-1.3-1.5-1.6c-0.4-0.3-0.8-0.4-1.3-0.4c-0.7,0-1.8,0.4-3.2,1.2
			c0,0,0.8-1.4,1.7-2.4c-1,0-2,0.3-3.1,0.4c-1.8,0.3-3.7,0.4-5.4,1c-1.9,0.7-3.8,1.7-5.3,3.1c0.1,0,0.1,0.1,0.2,0.1
			c0.2,0.1,0.3,0.2,0.5,0.4c0.2,0.2,0.4,0.4,0.5,0.6c0.1,0.2,0.3,0.3,0.5,0.5c0.2,0.2,0.3,0.4,0.4,0.5c0.5,0.7,0.9,1.5,1.1,2.3
			c0.1,0.2,0.2,0.5,0.2,0.7c0,0,0,0.3,0.1,0.3c0,0-2-0.9-4.6-3.4c-0.1,0-0.2,0.2-0.3,0.4c-0.1,0.2-0.4,0.8-0.6,1.3
			c-0.2,0.6-0.4,1.2-0.5,1.6c0,0.1-0.1,0.2-0.1,0.3c0.1,0.2,0.1,0.4,0.2,0.5c0.7,1.2,1.8,2.2,2.8,3.2c0.1-0.1,0.3-0.3,0.6-0.7
			c0,0-1.7-0.7-1.7-2.9c0,0,4.4,2.8,7.3,2.5c0,0-1.5,1.5-4.3,1L47.6,34c0.1,0.1,0.1,0.2,0.2,0.3c0.4,0.3,1.1,1,1.8,2.4
			c0.8,0.4,1.6,0.7,2.4,1.1c0.1-1,0.2-2,0.3-2.6c0.2-1,1.4-1.2,1.4-1.2c0,0.2,0,0.2,0,0.3c0,0.1,0,0.1,0,0.1c0,0.2,0,0.5-0.1,0.9
			c0,0.4-0.1,0.9-0.1,1.4c-0.1,0.6-0.2,1.3-0.2,1.9c1.2,0.8,2.5,1.6,4.1,1.4c1.9-0.2,2.9-5.2,4-6c0.2-0.1,0.3-0.2,0.4-0.3
			c-0.8-0.9-1.6-2.1-2.1-3.3c-0.5-1.1-0.9-2-1.4-2.6c-0.4-0.7-0.9-1.1-1.1-1.2c0,0,0,0,0,0c-0.1,0-0.3,0.1-0.4,0.1c0,0,0,0,0,0
			c-0.3,0-0.6-0.1-0.8-0.2c-0.2-0.1-0.4-0.3-0.5-0.4c-1-1.4,0.9-2.6,0.9-2.6s0,0,0,0c0,0,0.2,1.5,0.2,1.5c0.1-0.1,1.4-2,1.5-2.1
			c0,0,0.1-0.1,0.1-0.1s0.5,1.2,0.5,2.2c0,0,0,0,0,0c0.4,0.3,0.8,0.7,1.1,1.1c0.7,0.9,1.4,2.1,2,3.5c0.6,1.4,1.8,2.9,2.6,3.5
			c0.1,0.1,0.2,0.1,0.3,0.2c0,0,0-0.1,0-0.1c0.2-1.3,0.4-2.9,0.4-4.5C65.1,26.6,64.7,24.6,63.7,23.3z"/>
	</g>
</g>
<g id="training" display="none">
	<g display="inline">
		<g>
			<defs>
				<rect id="SVGID_1_" x="25" y="31.3" width="49.9" height="39"/>
			</defs>
			<clipPath id="SVGID_2_">
				<use xlink:href="#SVGID_1_"  overflow="visible"/>
			</clipPath>
			<path clip-path="url(#SVGID_2_)" fill="#FFFFFF" d="M71.1,43c-0.2-1.5-0.2-4.1,1.2-5c0,0,0,0,0.1-0.1c1.1-0.4,1.9-0.9,1.3-1.6
				l-16.9-5.1l-27.4,3.8c0,0-3.1,0.5-2.9,5.3c0.2,2.6,1,3.9,1.7,4.6L26,45.7c-0.6,0.7,0.2,1.2,1.3,1.6c0,0,0,0,0.1,0.1
				c1.4,0.9,1.4,3.5,1.2,5c-5,1.4-3.2,1.9-3.2,1.9l1.1,0.3c-0.8,0.7-1.6,2-1.4,4.6c0.3,4.9,2.9,5.2,2.9,5.2l17.9,5.8l27-6.5
				c0,0,1.8-0.5-3.2-1.9c-0.2-1.5-0.2-4.1,1.2-5c0,0,0,0,0.1-0.1c1.1-0.4,1.9-0.9,1.3-1.6L71,54.7c0.8-0.5,2-1.7,2.1-4.9
				c0.1-2.2-0.4-3.5-1.1-4.3l2.3-0.6C74.3,44.9,76.1,44.5,71.1,43L71.1,43z M48.5,43L53,42l15.4-3.2l2.3-0.5
				c-0.7,1.3-0.7,3.2-0.6,4.3c0,0.3,0.1,0.5,0.1,0.7l-2.5,0.6l-19.4,4.8L48.5,43z M29,47.7l2.3,0.5l14.8,3l1.3,0.3l3.9,0.8l0.2,5.9
				l-19.9-5l-2-0.5c0-0.2,0.1-0.4,0.1-0.7C29.7,50.9,29.7,49.1,29,47.7L29,47.7z M28.1,40.2c0-1.3,0.2-2.2,0.7-2.7
				c0.3-0.3,0.6-0.4,0.9-0.4c0.1,0,0.2,0,0.2,0L41.6,41l5.9,1.9l-0.2,6l-16.5-4.6L30,44c0,0-0.1,0-0.1,0
				C29.8,44,28.1,43.9,28.1,40.2L28.1,40.2z M45.8,67.5l-17.4-4.9c0,0-0.1,0-0.1,0c-0.1,0-1.7-0.2-1.8-3.8c0-1.3,0.2-2.2,0.7-2.7
				c0.3-0.3,0.6-0.4,0.9-0.4c0.1,0,0.2,0,0.2,0c0,0,0,0,0,0L46,61.5L45.8,67.5z M68.6,61.4c0,0.3,0.1,0.5,0.1,0.7l-21.9,5.4l0.2-5.9
				l4.7-1l0.7,0.2l2.6-0.8l11.9-2.5l2.3-0.5C68.4,58.4,68.5,60.2,68.6,61.4L68.6,61.4z M69.8,53.3c0,0-0.1,0-0.1,0L68,53.8
				l-15.7,4.4l-0.2-6l5.2-1.7l12.5-4.1c0,0,0.7-0.1,1.1,0.3c0.5,0.5,0.7,1.4,0.7,2.7C71.5,53.2,69.9,53.3,69.8,53.3L69.8,53.3z
				 M69.8,53.3"/>
		</g>
	</g>
</g>
<g id="studio_splash" display="none">
	<path display="inline" fill="#FFFFFF" d="M74,61.4c-0.2-0.2-0.6,0.1-0.5,0.4c0.1,0.3,0.2,0.7,0.2,1c0,4.5-10.8,8.1-24.2,8.1
		s-24.2-3.6-24.2-8.1c0-0.3,0.1-0.7,0.2-1c0.1-0.3-0.2-0.5-0.5-0.4c-1.6,1.1-2.5,2.4-2.5,3.8c0,5,12.1,9,27,9s27-4,27-9
		C76.5,63.8,75.6,62.6,74,61.4L74,61.4z M74,61.4"/>
	<path display="inline" fill="#FFFFFF" d="M67.1,59.8c0.2,0.3,0.4,0.7,0.4,1c0,2.8-8,5.1-17.9,5.1c-9.9,0-17.9-2.3-17.9-5.1
		c0-0.4,0.1-0.7,0.4-1c0.2-0.3-0.1-0.6-0.4-0.5c-1.9,0.9-3,2-3,3.1c0,3.3,9.4,6,20.9,6c11.6,0,20.9-2.7,20.9-6c0-1.1-1.1-2.2-3-3.1
		C67.2,59.2,66.9,59.6,67.1,59.8L67.1,59.8z M67.1,59.8"/>
	<path display="inline" fill="#FFFFFF" d="M36.8,59.6c-0.2,0.1-0.3,0.3-0.2,0.5c0.6,1.9,6.2,3.4,12.9,3.4c6.7,0,12.3-1.5,12.9-3.4
		c0.1-0.2,0-0.4-0.2-0.5c-1.5-0.8-10.5-3.8-12.4-19.4C51,40,52,39,52,37.8c0-1.4-1.1-2.5-2.5-2.5S47,36.4,47,37.8
		c0,1.3,0.9,2.3,2.2,2.4C47.3,55.9,38.2,58.8,36.8,59.6L36.8,59.6z M36.8,59.6"/>
	<path display="inline" fill="#FFFFFF" d="M53.1,29c0-2-1.6-3.6-3.6-3.6c-2,0-3.6,1.6-3.6,3.6c0,2,1.6,3.6,3.6,3.6
		C51.5,32.6,53.1,31,53.1,29L53.1,29z M48.4,29.2c-0.6,0-1.1-0.5-1.1-1.1c0-0.6,0.5-1.1,1.1-1.1c0.6,0,1.1,0.5,1.1,1.1
		C49.4,28.7,49,29.2,48.4,29.2L48.4,29.2z M48.4,29.2"/>
</g>
<g id="studio_compass" display="none">
	<g display="inline">
		<path fill="#FFFFFF" d="M41.1,53.8c-2.2,3-4,6-3.9,7.4c1.4,0.1,4.4-1.7,7.4-3.9c1.1,0.6,2.3,1.1,3.5,1.3l1.6,4.4l1.6-4.4
			c4.3-0.7,7.7-4.1,8.3-8.4l4.5-1.6L59.6,47c-0.2-1.2-0.6-2.3-1.2-3.3c2.2-3,4-6,3.9-7.4c-1.4-0.1-4.4,1.7-7.4,3.9
			c-1-0.6-2.2-1-3.4-1.3l-1.7-4.7l-1.7,4.7c-4.2,0.7-7.4,4-8.2,8.1l-4.5,1.6l4.5,1.6C40,51.5,40.5,52.7,41.1,53.8L41.1,53.8z
			 M41.5,48.7c0-0.9,0.1-1.7,0.4-2.5c0.8-2.6,2.9-4.6,5.5-5.4c0.8-0.2,1.6-0.4,2.4-0.4s1.6,0.1,2.4,0.4c0.4,0.1,0.8,0.3,1.1,0.4
			c-0.3,0.2-0.5,0.4-0.8,0.6c-0.3,0.2-0.6,0.4-0.8,0.6c-2,1.6-3.7,3-4.4,3.7c-0.7,0.7-2.1,2.3-3.6,4.2c-0.2,0.3-0.4,0.6-0.7,0.9
			c-0.2,0.3-0.5,0.6-0.7,0.9c-0.2-0.4-0.4-0.9-0.5-1.3C41.6,50.2,41.5,49.5,41.5,48.7L41.5,48.7z M57.6,46.3
			c0.2,0.8,0.4,1.6,0.4,2.5c0,0.7-0.1,1.5-0.3,2.2c-0.8,2.8-2.9,5-5.7,5.8c-0.7,0.2-1.5,0.3-2.3,0.3c-0.8,0-1.5-0.1-2.3-0.3
			c-0.4-0.1-0.8-0.3-1.2-0.5c0.3-0.2,0.6-0.4,0.8-0.6c0.4-0.3,0.8-0.6,1.1-0.9c1.8-1.4,3.3-2.8,4-3.4c0.7-0.7,2.1-2.3,3.6-4.2
			c0.3-0.4,0.6-0.7,0.8-1.1c0.2-0.2,0.3-0.4,0.5-0.7C57.3,45.6,57.5,45.9,57.6,46.3L57.6,46.3z M48.4,48.7c0-0.7,0.6-1.3,1.3-1.3
			c0.7,0,1.3,0.6,1.3,1.3c0,0.7-0.6,1.3-1.3,1.3C49,50.1,48.4,49.5,48.4,48.7L48.4,48.7z M48.4,48.7"/>
		<path fill="#FFFFFF" d="M49.7,74.1c14,0,25.4-11.4,25.4-25.4c0-14-11.4-25.4-25.4-25.4c-14,0-25.4,11.4-25.4,25.4
			C24.4,62.7,35.7,74.1,49.7,74.1L49.7,74.1z M29.2,44.8c1.6-8.4,8.2-15,16.6-16.6l3.9,3.9l3.9-3.9c8.4,1.6,15,8.2,16.6,16.6
			l-3.9,3.9l3.9,3.9c-1.6,8.4-8.2,15-16.6,16.6l-3.9-3.9l-3.9,3.9c-8.4-1.6-15-8.2-16.6-16.6l3.9-3.9L29.2,44.8z M29.2,44.8"/>
	</g>
</g>
<g id="ampersand" display="none">
	<rect x="21.2" y="16.6" display="inline" fill="none" width="58.6" height="75.4"/>
	
		<text transform="matrix(1 0 0 1 25.4844 68.4502)" display="inline" fill="#FFFFFF" font-family="'Quando-Regular'" font-size="60">&amp;</text>
</g>
<g id="studio_spyglass" display="none">
	<path display="inline" fill="#FFFFFF" stroke="#0F9CD9" d="M32.3,32.7c-2.5,2.5-5.7,3.2-7.2,1.7s-0.8-4.7,1.7-7.2s5.7-3.2,7.2-1.7
		S34.7,30.3,32.3,32.7z"/>
	<path display="inline" fill="#FFFFFF" stroke="#0F9CD9" d="M33.4,40c1,1,3.3,0.5,5-1.1s2.2-3.9,1.1-5L34,29.4
		c-0.9-0.9-2.7-0.4-4.1,1s-1.8,3.2-1,4.1L33.4,40z"/>
	<path display="inline" fill="#FFFFFF" stroke="#0F9CD9" d="M42.6,53.5c1.8,1.8,5.6,0.9,8.5-2s3.7-6.7,2-8.5l-9.5-7.6
		c-1.5-1.5-4.6-0.7-6.9,1.6c-2.4,2.4-3.1,5.5-1.6,6.9L42.6,53.5z"/>
	<g display="inline">
		<path fill="#FFFFFF" stroke="#0F9CD9" d="M73.3,57.3l-12.1-9.8c-2.7-1.5-7.2-0.1-10.7,3.4c-3.5,3.5-4.9,8-3.4,10.7l9.8,12.1
			c2.8,2.8,8.8,1.4,13.3-3.1C74.8,66.2,76.1,60.2,73.3,57.3z"/>
		<path fill="#FFFFFF" stroke="#0F9CD9" d="M50.5,51c3.5-3.5,8-4.9,10.7-3.4l-2.8-2.3c-2.3-2.3-7.2-1.1-11,2.6
			c-3.7,3.7-4.9,8.6-2.6,11l2.3,2.8C45.7,59,47,54.5,50.5,51z"/>
	</g>
	<path display="inline" fill="none" stroke="#0F9CD9" d="M37.8,47.5c-1.6-1.6-0.8-5,1.8-7.5c2.6-2.6,5.9-3.4,7.5-1.8"/>
	<path display="inline" fill="#FFFFFF" d="M69.7,68.7c-1.7,1.7-3.9,2.2-4.9,1.1c-1-1-0.5-3.2,1.1-4.9c1.7-1.7,3.9-2.2,4.9-1.1
		S71.4,67,69.7,68.7z"/>
	<path display="inline" fill="#FFFFFF" stroke="#0F9CD9" stroke-width="0.7781" d="M70.3,70.6c-4.8,4.8-11.2,6.3-14.2,3.3
		c-3-3-1.5-9.4,3.3-14.2s11.2-6.3,14.2-3.3C76.6,59.4,75.2,65.7,70.3,70.6z"/>
	<path display="inline" fill="#FFFFFF" stroke="#0F9CD9" stroke-width="1.0707" d="M70.9,71.2c-3.5,3.5-8.2,4.6-10.3,2.4
		c-2.2-2.2-1.1-6.8,2.4-10.3c3.5-3.5,8.2-4.6,10.3-2.4C75.5,63,74.4,67.7,70.9,71.2z"/>
	<path display="inline" fill="#0F9CD9" d="M67.4,71c-2.3,2.3-5.3,3-6.7,1.6c-1.4-1.4-0.7-4.4,1.6-6.7c2.3-2.3,5.3-3,6.7-1.6
		S69.7,68.8,67.4,71z"/>
</g>
<g id="downloads" display="none">
	<g display="inline">
		<path fill="#FFFFFF" d="M66.8,44.9h-9.4V30.8H43.2v14.2h-9.4l16.5,16.5L66.8,44.9z M33.8,66.1v4.7h33v-4.7H33.8z M33.8,66.1"/>
	</g>
</g>
<g id="coaching" display="none">
	<g display="inline">
		<path fill="#FFFFFF" d="M74.6,42.4c0,4.2-3.5,7.7-7.7,7.7c-4.2,0-7.7-3.5-7.7-7.7c0-1.3,0.7-4,2.9-5.5l2,5.3l-2.2-1.3
			c-1.5,4.4,2,7.5,5.1,7.5c3.1,0,4.8-2.6,4.8-5.9c0-4.9-5.5-8.7-5.9-16.8c-0.7-0.4-1.1-1.1-1.1-1.9c0-1.2,1-2.2,2.2-2.2
			c1.2,0,2.2,1,2.2,2.2c0,0.6-0.2,1.1-0.6,1.5C68.7,33.4,74.6,37.3,74.6,42.4L74.6,42.4z M56.1,58.7c0,1.1,0.9,2,2,2
			c1.1,0,2-0.9,2-2c0-1.1-0.9-2-2-2C57,56.7,56.1,57.6,56.1,58.7L56.1,58.7z M67.8,60.5l-3.7,4l2.9,2.9c-3.3,3.1-12.5,7-18.3,7
			c-1.9,0-3.9-0.4-5.9-1.1c-2.7,1-6.7,1.1-7.7,1.1c0.6-0.8,1.1-2.4,1.5-3.9c-2.5-1.4-4.7-2.9-6.5-4.1c-1.2,3.1-4.3,5.3-8.2,5.8
			c1.5-2.4,2.4-5.5,2.4-8.8c0-3.3-0.9-6.4-2.4-8.8c3.9,0.5,6.9,2.7,8.2,5.7c1.4-1,3-2.2,4.8-3.3c-0.9-1.3-2-2.5-2-2.5l8.8-6.6
			c0,0,3.3,0.2,8,4.5C59.5,52.9,64.8,57.3,67.8,60.5L67.8,60.5z M61.4,60c0-1.8-1.5-3.3-3.3-3.3c-1.8,0-3.3,1.5-3.3,3.3
			c0,1.8,1.5,3.3,3.3,3.3C59.8,63.3,61.4,61.8,61.4,60L61.4,60z M61.4,60"/>
	</g>
</g>
<g id="gigs" display="none">
	<g display="inline">
		<path fill="#FFFFFF" d="M64.8,35.1c0,2.8-2.3,5.1-5.1,5.1c-2.8,0-5.1-2.3-5.1-5.1c0-2.8,2.3-5.1,5.1-5.1
			C62.5,30,64.8,32.3,64.8,35.1L64.8,35.1z M64.8,35.1"/>
		<path fill="#FFFFFF" d="M49.4,61.8v-1.2c0-1,0.5-2,1.3-2.6v-4.3H46c-1.8,0-3.3-1.4-3.3-3.2c0-0.3,0.1-0.5,0.1-0.8v-1.2h0.5
			c0.6-0.9,1.5-1.3,2.6-1.3h4.3c0-0.2,0.2-0.3,0.2-0.5V35.1c0-1-0.9-1.8-1.9-1.8H34.1c-1,0-1.7,0.8-1.7,1.8v11.6
			c0,1,0.7,1.8,1.7,1.8H40V50h-2c-0.9,0-1.6,0.6-1.6,1.7h-6.7c-0.4,0-0.8,0.3-0.8,0.7v1.8c0,0.4,0.3,0.7,0.8,0.7H32v16.5h19.1V64
			C51.1,64,49.4,63.6,49.4,61.8L49.4,61.8z M36.7,45.9c-1,0-1.8-0.7-1.8-1.7v-6.6c0-1,0.9-1.7,1.8-1.7h9.4c1,0,1.8,0.7,1.8,1.7v6.6
			c0,1-0.8,1.7-1.8,1.7H36.7z M36.7,45.9"/>
		<path fill="#FFFFFF" d="M63.1,41h-6.7c-4.1,0-4.4,4.1-4.4,4.1s-0.5,2.8-1,3.1c-0.1,0.1-0.3,0.2-0.5,0.2H46c-1.1,0-2,0.9-2,2
			c0,1.1,0.9,1.9,2,1.9h4.6c0.7,0,1.3,0,1.4,0l0,4.8h2.6V46.4c0-2.1,1.4-4.6,3.5-4.6h8C65.3,41.2,64.2,41,63.1,41L63.1,41z M63.1,41
			"/>
		<path fill="#FFFFFF" d="M68.2,62.5c1.4,0,2.6-1.2,2.6-2.6V46.5c0-1.6-1.4-3-3-3h-9.1c-1.6,0-2.9,1.4-2.9,3v11.9h-2.9
			c-1.1,0-2.1,0.9-2.1,2v0.7c0,0.8,0.6,1.4,1.4,1.4h6.2v1.7h-1c0,0-2.5,0.1-2.5,2.4v3.3c0,0.7,0.6,1.4,1.3,1.4
			c0.8,0,1.3-0.6,1.3-1.4l0-3h4.5v3.1c0,0.7,0.7,1.4,1.4,1.4c0.8,0,1.4-0.6,1.4-1.4v-3.3c0-2.5-2.7-2.4-2.7-2.4h-1v-1.7H68.2z
			 M68.2,62.5"/>
	</g>
</g>
</svg>
